# File created by Blade
# Date/Time:  Wed Jan 21 14:58:10 2015
# Frame Rate: 120.000 fps
#------------------------------------------------------
:FULLY-SPECIFIED
:DEGREES
667
root 19.391308 35.372164 -22.019493 -165.159068 38.901049 -169.000630
Spine -14.909139 -39.789547 8.350786
Head 17.238430 -26.329506 2.800022
LeftShoulder 2.179686 -37.925155 14.797013
LeftArm 21.578935 18.086079 -22.151894
LeftForeArm 14.394270 0.000000 -1.106009
LeftHand -11.181201 -0.000000 -2.923643
LeftHandThumb1 -26.253704 0.000000 33.147579
RightShoulder -13.966934 -9.592607 -12.541212
RightArm -11.574510 35.603161 14.445069
RightForeArm -31.320983 0.000000 5.023521
RightHand -11.315439 -0.000000 3.381059
RightHandThumb1 -24.326973 -0.000000 -32.862282
LeftUpLeg 7.242586 32.790599 11.719472
LeftLeg -5.184976 -0.000000 0.000000
LeftFoot -26.769659 37.232714 -19.761011
LeftToeBase 20.936271 -0.000000 -0.000000
RightUpLeg -9.356060 14.722242 3.960553
RightLeg -1.984809 -0.000000 0.000000
RightFoot -9.609155 -4.263540 18.040486
RightToeBase 26.191874 -0.000000 -0.000000
668
root 19.414860 35.375573 -22.030302 -165.449707 37.786282 -169.244035
Spine -14.866678 -39.456320 8.266881
Head 17.160699 -26.228566 2.859845
LeftShoulder 2.065110 -38.441912 14.961679
LeftArm 20.817154 18.457628 -22.026803
LeftForeArm 14.641110 0.000000 -0.983674
LeftHand -11.378176 -0.000000 -2.844312
LeftHandThumb1 -26.253704 0.000000 33.147579
RightShoulder -13.957405 -9.524806 -12.407493
RightArm -11.102042 35.517317 14.398571
RightForeArm -31.261695 -0.000000 4.860641
RightHand -11.343808 -0.000000 3.259184
RightHandThumb1 -24.326973 -0.000000 -32.862282
LeftUpLeg 7.065435 32.217968 11.795433
LeftLeg -5.212814 -0.000000 0.000000
LeftFoot -26.532045 36.823288 -19.674761
LeftToeBase 21.008380 -0.000000 -0.000000
RightUpLeg -9.101088 14.348035 4.014113
RightLeg -2.066822 -0.000000 0.000000
RightFoot -9.993148 -4.967185 17.986085
RightToeBase 26.060786 -0.000000 -0.000000
669
root 19.433041 35.379174 -22.042736 -165.658875 36.679989 -169.475619
Spine -14.978132 -39.130320 8.329092
Head 17.087776 -26.077856 2.824139
LeftShoulder 1.827605 -38.322964 15.019177
LeftArm 20.537816 18.568730 -21.569081
LeftForeArm 14.532769 -0.000000 -0.967904
LeftHand -11.340129 0.000000 -2.981849
LeftHandThumb1 -26.253704 0.000000 33.147579
RightShoulder -13.838277 -9.416931 -12.417302
RightArm -10.765305 35.495607 14.350500
RightForeArm -31.314973 -0.000000 4.768266
RightHand -11.306213 0.000000 3.195498
RightHandThumb1 -24.326973 -0.000000 -32.862282
LeftUpLeg 6.808788 31.683293 11.813381
LeftLeg -5.258399 -0.000000 0.000000
LeftFoot -26.300944 36.447661 -19.536719
LeftToeBase 21.197827 -0.000000 -0.000000
RightUpLeg -8.929619 13.992662 4.037329
RightLeg -2.133783 -0.000000 0.000000
RightFoot -10.383152 -5.654243 17.973270
RightToeBase 26.147786 -0.000000 -0.000000
670
root 19.449633 35.380138 -22.058319 -165.939363 35.554547 -169.731352
Spine -14.977738 -38.752937 8.252422
Head 17.018811 -26.008416 2.839068
LeftShoulder 1.693729 -37.925501 15.052380
LeftArm 20.352372 18.357540 -21.110899
LeftForeArm 14.644401 -0.000000 -0.970796
LeftHand -11.292305 0.000000 -2.839225
LeftHandThumb1 -26.253704 0.000000 33.147579
RightShoulder -13.747548 -9.456243 -12.350215
RightArm -10.446520 35.550960 14.297883
RightForeArm -31.291697 -0.000000 4.699648
RightHand -11.366120 -0.000000 3.274485
RightHandThumb1 -24.326973 -0.000000 -32.862282
LeftUpLeg 6.616109 31.121423 11.836660
LeftLeg -5.315488 -0.000000 0.000000
LeftFoot -26.093749 36.066897 -19.435290
LeftToeBase 21.418930 -0.000000 -0.000000
RightUpLeg -8.693886 13.625023 4.047967
RightLeg -2.198172 -0.000000 0.000000
RightFoot -10.838277 -6.341686 17.897496
RightToeBase 26.315007 -0.000000 -0.000000
671
root 19.471571 35.384217 -22.070773 -166.189483 34.326450 -169.994817
Spine -15.045777 -38.453481 8.191824
Head 17.043440 -26.016339 2.805079
LeftShoulder 1.557032 -37.690843 15.131564
LeftArm 20.085401 18.332206 -20.761725
LeftForeArm 14.398643 -0.000000 -0.904084
LeftHand -11.841522 -0.000000 -2.570825
LeftHandThumb1 -26.253704 0.000000 33.147579
RightShoulder -13.678679 -9.549740 -12.283141
RightArm -10.080982 35.664383 14.297411
RightForeArm -31.289819 -0.000000 4.622077
RightHand -11.380758 -0.000000 3.106084
RightHandThumb1 -24.326973 -0.000000 -32.862282
LeftUpLeg 6.324388 30.485756 11.836716
LeftLeg -5.328758 -0.000000 0.000000
LeftFoot -25.824217 35.692296 -19.263611
LeftToeBase 21.607704 -0.000000 -0.000000
RightUpLeg -8.490710 13.136500 4.079505
RightLeg -2.243330 -0.000000 0.000000
RightFoot -11.273042 -7.019596 17.855258
RightToeBase 26.253820 -0.000000 -0.000000
672
root 19.484189 35.387994 -22.086117 -166.421044 33.162267 -170.250861
Spine -15.088961 -38.088190 8.151102
Head 16.910330 -26.003755 2.827896
LeftShoulder 1.326724 -37.733039 15.227606
LeftArm 19.725037 18.369648 -20.471809
LeftForeArm 14.436816 -0.000000 -0.844416
LeftHand -11.387279 0.000000 -3.101089
LeftHandThumb1 -26.253704 0.000000 33.147579
RightShoulder -13.664283 -9.530726 -12.218392
RightArm -9.647886 35.766812 14.261720
RightForeArm -31.353507 -0.000000 4.480621
RightHand -11.120701 -0.000000 3.210296
RightHandThumb1 -24.326973 -0.000000 -32.862282
LeftUpLeg 6.038901 29.878748 11.804513
LeftLeg -5.342068 -0.000000 0.000000
LeftFoot -25.592804 35.300015 -19.120618
LeftToeBase 21.732369 -0.000000 -0.000000
RightUpLeg -8.311788 12.729394 4.070357
RightLeg -2.273922 -0.000000 0.000000
RightFoot -11.694355 -7.710607 17.759210
RightToeBase 26.204529 -0.000000 -0.000000
